<svg id="visual" viewBox="0 0 900 600" width="900" height="600" xmlns="http://www.w3.org/2000/svg" xmlns:xlink="http://www.w3.org/1999/xlink" version="1.1"><rect x="0" y="0" width="900" height="600" fill="#001220"></rect><path d="M0 95L30 98.2C60 101.3 120 107.7 180 113.3C240 119 300 124 360 123.7C420 123.3 480 117.7 540 119.8C600 122 660 132 720 130.2C780 128.3 840 114.7 870 107.8L900 101L900 0L870 0C840 0 780 0 720 0C660 0 600 0 540 0C480 0 420 0 360 0C300 0 240 0 180 0C120 0 60 0 30 0L0 0Z" fill="#69f1fa"></path><path d="M0 88L30 90C60 92 120 96 180 97C240 98 300 96 360 92.7C420 89.3 480 84.7 540 82C600 79.3 660 78.7 720 79.5C780 80.3 840 82.7 870 83.8L900 85L900 0L870 0C840 0 780 0 720 0C660 0 600 0 540 0C480 0 420 0 360 0C300 0 240 0 180 0C120 0 60 0 30 0L0 0Z" fill="#00ccff"></path><path d="M0 66L30 69.8C60 73.7 120 81.3 180 80.7C240 80 300 71 360 66.5C420 62 480 62 540 61.7C600 61.3 660 60.7 720 64.5C780 68.3 840 76.7 870 80.8L900 85L900 0L870 0C840 0 780 0 720 0C660 0 600 0 540 0C480 0 420 0 360 0C300 0 240 0 180 0C120 0 60 0 30 0L0 0Z" fill="#00a1fb"></path><path d="M0 64L30 59C60 54 120 44 180 44.5C240 45 300 56 360 56C420 56 480 45 540 40.2C600 35.3 660 36.7 720 38.2C780 39.7 840 41.3 870 42.2L900 43L900 0L870 0C840 0 780 0 720 0C660 0 600 0 540 0C480 0 420 0 360 0C300 0 240 0 180 0C120 0 60 0 30 0L0 0Z" fill="#0070e8"></path><path d="M0 29L30 29.2C60 29.3 120 29.7 180 29.8C240 30 300 30 360 30.2C420 30.3 480 30.7 540 32.2C600 33.7 660 36.3 720 37.3C780 38.3 840 37.7 870 37.3L900 37L900 0L870 0C840 0 780 0 720 0C660 0 600 0 540 0C480 0 420 0 360 0C300 0 240 0 180 0C120 0 60 0 30 0L0 0Z" fill="#2438c7"></path></svg>